<svg xmlns="http://www.w3.org/2000/svg" width="48" height="54" viewBox="0 0 26 30">
  <g fill="none" fill-rule="evenodd">
    <path d="M23.791 5.072c-.655-1.117-2.683-1.934-4.313-2.591a24.56 24.56 0 0 1-1.186-.501 53.999 53.999 0 0 1-.693-1.35 1.296 1.296 0 0 0-.148-.236.954.954 0 0 0-.733-.394H9.15a.904.904 0 0 0-.435.132 1.15 1.15 0 0 0-.443.499 43.23 43.23 0 0 1-.697 1.36c-.345.197-.884.42-1.511.676-1.506.617-3.38 1.384-3.979 2.405C1.26 6.477.091 12.412.041 12.664l-.041.21.686.175 3.953 1.27.8-2.2c.481 4.064.283 9.56.149 13.284-.12 3.305-.127 4.033.066 4.232.293.302 4.072.365 7.191.365 3.231 0 7.138-.065 7.405-.374.162-.186.155-.792.052-3.802-.128-3.74-.318-9.271.19-13.434l.763 1.984.97-.368 2.954-.954.821-.224-.045-.21c-.055-.25-1.341-6.143-2.164-7.546z" fill="#5BADFF">
    </path>
    <path d="M4.376 13.769l-3.573-1.15-.295-.076c.218-1.084 1.245-6.042 1.948-7.24.523-.892 2.398-1.66 3.768-2.22.648-.267 1.211-.497 1.58-.71l2.363-.15h5.531c1.77.114 2.251.143 2.386.152.329.156.75.327 1.237.522 1.485.599 3.52 1.42 4.1 2.406.703 1.199 1.824 6.123 2.065 7.203l-3.4 1.077-.584.222-1.201-3.122-.124.805c-.653 4.275-.446 10.34-.308 14.352.056 1.647.11 3.206.063 3.468-.417.121-2.972.245-7.087.245-4.014 0-6.443-.12-6.872-.243-.08-.366-.018-2.08.047-3.89.145-4.014.365-10.078-.27-14.239l-.128-.838-1.246 3.426M8.114 1.906c.162-.31.393-.755.546-1.075.184-.37.455-.384.497-.384h7.569c.03 0 .307.011.485.382.154.318.387.766.55 1.077l-2.05-.132h-2.618l-2.94.001-2.04.13M16.719 0H9.15c-.094 0-.58.03-.876.63a46.428 46.428 0 0 1-.698 1.362c-.344.195-.884.418-1.511.675-1.507.617-3.38 1.384-3.979 2.405C1.26 6.478.09 12.412.041 12.664l-.041.21.686.175 3.952 1.27.8-2.2c.482 4.064.284 9.56.15 13.284-.12 3.305-.127 4.033.066 4.233.293.3 4.072.364 7.19.364 3.232 0 7.14-.065 7.406-.374.162-.186.156-.792.052-3.801-.128-3.741-.318-9.272.19-13.435l.764 1.984.97-.368 2.954-.955.82-.224-.046-.209c-.054-.25-1.34-6.143-2.163-7.546-.655-1.116-2.683-1.934-4.313-2.592a24.249 24.249 0 0 1-1.185-.5c-.111-.208-.48-.909-.694-1.35-.288-.598-.775-.63-.88-.63" fill="#323C46">
    </path>
  </g>
</svg>
