<svg xmlns="http://www.w3.org/2000/svg" width="132" height="32" viewBox="0 0 132 32">
    <g fill="#EB2C88" fill-rule="evenodd">
        <path d="M29.938 19.88v11.419h-5.634v-9.807c0-2.15-1.18-3.46-3.046-3.46-2.129.068-3.44 1.848-3.44 4.3v8.967h-5.666v-9.807c0-2.15-1.146-3.46-3.014-3.46-2.161.068-3.504 1.848-3.504 4.3v8.967H0V13.197h5.634v2.989c1.212-2.15 3.242-3.225 5.83-3.258 2.883 0 5.012 1.545 5.896 4.097 1.147-2.687 3.309-4.064 6.224-4.097 3.865 0 6.354 2.72 6.354 6.952M32.66 31.299h5.443v-17.69H32.66zM34.193 9.186c0-.84.684-1.52 1.528-1.52s1.529.68 1.529 1.52c0 .839-.685 1.52-1.529 1.52-.844 0-1.528-.681-1.528-1.52m1.529 3.061c1.783 0 3.062-1.271 3.062-3.078 0-1.774-1.279-3.045-3.062-3.045-1.784 0-3.062 1.271-3.062 3.045 0 1.807 1.278 3.078 3.062 3.078M104.956 8.998c0-.836.684-1.514 1.528-1.514s1.529.678 1.529 1.514c0 .837-.685 1.515-1.529 1.515a1.521 1.521 0 0 1-1.528-1.515m1.528 4.61s3.062-2.649 3.062-4.45c0-1.767-1.278-3.034-3.061-3.034-1.784 0-3.062 1.267-3.062 3.034 0 1.801 3.061 4.45 3.061 4.45M54.338 21.244c0-2.201-1.393-3.635-3.449-3.635-1.99 0-3.349 1.467-3.714 3.635h7.163zm5.504 3.1H47.275c.564 2.135 2.089 3.334 4.211 3.334 1.558 0 3.084-.633 4.278-1.833l3.017 2.967c-1.823 2-4.51 3.167-7.792 3.167-5.836 0-9.484-3.667-9.484-9.135 0-5.568 3.78-9.236 9.318-9.236 6.3 0 9.417 4.168 9.02 10.736zM80.289 19.88v11.419h-5.745v-9.807c0-2.116-1.236-3.425-3.174-3.425-2.104 0-3.44 1.51-3.674 3.66v9.572h-5.778V13.197h5.778v2.955c1.27-2.116 3.34-3.19 6.013-3.224 3.974 0 6.58 2.72 6.58 6.952M88.283 31.299l-6.634-17.69h5.817l3.791 12.504 3.823-12.505h5.621L94.067 31.3zM106.026 15.805s-1.089-.992-1.976-2.197h-.627V31.3h5.443v-17.69h-.863a17.101 17.101 0 0 1-1.977 2.196M118.097 22.844c0 2.8 1.642 4.668 4.054 4.668 2.378 0 4.02-1.867 4.02-4.668 0-2.767-1.642-4.668-4.02-4.668-2.412 0-4.054 1.9-4.054 4.668M132 22.777c0 5.535-3.953 9.202-9.85 9.202-5.929 0-9.882-3.667-9.882-9.202 0-5.534 3.953-9.169 9.883-9.169 5.896 0 9.849 3.635 9.849 9.17M41.113 6.943l.158-.085.468-.24a39.9 39.9 0 0 1 1.78-.832 61.579 61.579 0 0 1 6.562-2.434c1.383-.438 2.902-.843 4.517-1.246 1.621-.374 3.337-.755 5.134-1.042.895-.165 1.814-.277 2.74-.413.93-.116 1.874-.224 2.826-.316.954-.07 1.914-.176 2.883-.21l1.455-.073c.485-.02.972-.021 1.459-.032.487-.006.974-.024 1.46-.02l1.458.023c.972 0 1.936.068 2.895.112 1.916.109 3.799.29 5.613.527.91.095 1.794.267 2.665.396.873.126 1.716.301 2.539.464l1.217.241c.4.08.788.183 1.172.27.767.185 1.512.353 2.22.535l2.023.564.939.263.875.281c1.128.373 2.128.66 2.922.969l2.518.921c.903.33 1.359 1.307 1.018 2.183-.34.875-1.348 1.317-2.25.987a1.334 1.334 0 0 1-.057-.022l-.07-.028-2.379-.973c-.75-.327-1.696-.635-2.765-1.035l-.829-.302-.89-.285-1.92-.615c-.674-.2-1.382-.387-2.112-.593-.367-.099-.736-.213-1.117-.303l-1.16-.275c-.785-.186-1.59-.386-2.425-.538-.833-.156-1.678-.354-2.55-.478a74.85 74.85 0 0 0-5.395-.712c-.924-.077-1.854-.178-2.793-.213l-1.41-.075c-.47-.023-.942-.022-1.414-.034-.472-.007-.944-.025-1.416-.023l-1.413.018c-.941-.002-1.876.066-2.806.099-.929.055-1.85.125-2.758.204-.907.099-1.806.174-2.684.302-1.761.213-3.449.523-5.047.827-1.591.334-3.092.674-4.46 1.052a60.376 60.376 0 0 0-6.506 2.136c-.768.301-1.358.564-1.758.742l-.448.209c-.101.05-.153.074-.153.074l-.01.005a.566.566 0 0 1-.75-.24.534.534 0 0 1 .229-.717"/>
    </g>
</svg>
